<svg height='300px' width='300px'  fill="#ffcb73" xmlns:dc="http://purl.org/dc/elements/1.1/" xmlns:cc="http://creativecommons.org/ns#" xmlns:rdf="http://www.w3.org/1999/02/22-rdf-syntax-ns#" xmlns:svg="http://www.w3.org/2000/svg" xmlns="http://www.w3.org/2000/svg" xmlns:sodipodi="http://sodipodi.sourceforge.net/DTD/sodipodi-0.dtd" xmlns:inkscape="http://www.inkscape.org/namespaces/inkscape" version="1.1" x="0px" y="0px" viewBox="0 0 100 100"><g transform="translate(0,-952.36218)"><path style="text-indent:0;text-transform:none;direction:ltr;block-progression:tb;baseline-shift:baseline;color:#000000;enable-background:accumulate;" d="m 49.652536,957.37172 a 3.0000259,2.999982 0 0 0 -0.781179,0.18748 c -9.580975,3.83668 -19.711352,7.63858 -36.965373,8.18663 a 3.0000259,2.999982 0 0 0 -2.9059843,2.99968 c -0.00838,3.33703 -7.59e-5,22.14445 0,25.21608 4.186e-4,17.03631 5.2155543,29.21661 12.9363183,37.62101 7.720763,8.4043 17.756208,12.9926 27.24751,15.6546 a 3.0000259,2.999982 0 0 0 1.624852,0 c 9.491303,-2.662 19.526747,-7.2503 27.247511,-15.6546 7.720763,-8.4044 12.935899,-20.5847 12.936318,-37.62101 7.6e-5,-3.07163 0.0084,-21.87905 0,-25.21608 a 3.0000259,2.999982 0 0 0 -2.905985,-2.99968 c -17.25402,-0.54805 -27.384399,-4.34995 -36.965373,-8.18663 a 3.0000259,2.999982 0 0 0 -1.468615,-0.18748 z m 0.343718,6.21809 c 8.867339,3.52057 19.355681,7.0171 34.996803,7.90541 0.0044,5.58945 6.8e-5,19.7173 0,22.46637 -3.9e-4,15.83941 -4.645675,26.26901 -11.342714,33.55891 -6.489844,7.0645 -15.099567,11.1539 -23.654089,13.6548 -8.554521,-2.5009 -17.164245,-6.5903 -23.654089,-13.6548 -6.697039,-7.2899 -11.342324,-17.7195 -11.342713,-33.55891 -6.8e-5,-2.74907 -0.0044,-16.87691 0,-22.46637 15.641121,-0.88831 26.12946,-4.38484 34.996802,-7.90541 z m 18.842029,21.74769 a 3.0000259,2.999982 0 0 0 -2.031065,0.96865 l -23.716583,25.52855 -9.811604,-11.4363 a 3.0028735,3.0028295 0 1 0 -4.562083,3.9058 l 11.998904,13.9986 a 3.0000259,2.999982 0 0 0 4.468342,0.094 l 25.997625,-27.99703 a 3.0000259,2.999982 0 0 0 -2.343536,-5.06197 z" fill="#ffcb73" fill-opacity="1" stroke="none" marker="none" visibility="visible" display="inline" overflow="visible"></path></g></svg>